<?xml version="1.0" encoding="UTF-8" standalone="no"?>
<!-- Created with Inkscape (http://www.inkscape.org/) -->
<svg id="svg2408" xmlns:rdf="http://www.w3.org/1999/02/22-rdf-syntax-ns#" xmlns="http://www.w3.org/2000/svg" height="256" width="256" version="1.0" xmlns:cc="http://creativecommons.org/ns#" xmlns:xlink="http://www.w3.org/1999/xlink" xmlns:dc="http://purl.org/dc/elements/1.1/">
 <defs id="defs2410">
  <linearGradient id="ButtonShadow" y2="7.0165" gradientUnits="userSpaceOnUse" x2="45.448" gradientTransform="scale(1.0059 .99417)" y1="92.54" x1="45.448">
   <stop id="stop3750" offset="0"/>
   <stop id="stop3752" stop-opacity=".58824" offset="1"/>
  </linearGradient>
  <filter id="filter3174" color-interpolation-filters="sRGB">
   <feGaussianBlur id="feGaussianBlur3176" stdDeviation="1.71"/>
  </filter>
  <linearGradient id="linearGradient3188" y2="63.893" gradientUnits="userSpaceOnUse" x2="36.357" y1="6" x1="36.357">
   <stop id="stop3739" stop-color="#fff" offset="0"/>
   <stop id="stop3741" stop-color="#fff" stop-opacity="0" offset="1"/>
  </linearGradient>
  <linearGradient id="linearGradient3638" y2="7.0165" xlink:href="#ButtonShadow" gradientUnits="userSpaceOnUse" x2="45.448" gradientTransform="scale(1.0059 .99417)" y1="92.54" x1="45.448"/>
  <linearGradient id="linearGradient3646" y2="5.9877" gradientUnits="userSpaceOnUse" x2="48" y1="90" x1="48">
   <stop id="stop3599" stop-color="#dcdcdc" offset="0"/>
   <stop id="stop3601" stop-color="#f5f5f5" offset="1"/>
  </linearGradient>
  <radialGradient id="radialGradient2855" gradientUnits="userSpaceOnUse" cy="90.172" cx="48" gradientTransform="matrix(1.1573 0 0 .99591 -7.551 .19713)" r="42">
   <stop id="stop3739-6" stop-color="#fff" offset="0"/>
   <stop id="stop3741-4" stop-color="#fff" stop-opacity="0" offset="1"/>
  </radialGradient>
  <linearGradient id="linearGradient3779" y2="5.9877" xlink:href="#ButtonShadow" gradientUnits="userSpaceOnUse" x2="48" gradientTransform="matrix(1.0238 0 0 1.0119 -1.1429 .92857)" y1="90" x1="48"/>
  <linearGradient id="linearGradient3786" y2="5.9877" gradientUnits="userSpaceOnUse" x2="48" gradientTransform="translate(0,1)" y1="90" x1="48">
   <stop id="stop3750-8" offset="0"/>
   <stop id="stop3752-5" stop-opacity=".58824" offset="1"/>
  </linearGradient>
 </defs>
 <metadata id="metadata2413">
  <rdf:RDF>
   <cc:Work rdf:about="">
    <dc:format>image/svg+xml</dc:format>
    <dc:type rdf:resource="http://purl.org/dc/dcmitype/StillImage"/>
    <dc:title/>
   </cc:Work>
  </rdf:RDF>
 </metadata>
 <g id="layer2" display="none" transform="translate(-2.0189 161.02)">
  <path id="rect3745" opacity=".9" d="m11 7c-3.324 0-6 2.676-6 6v73c0 3.324 2.676 6 6 6h74c3.324 0 6-2.676 6-6v-73c0-3.324-2.676-6-6-6h-5v2.5c1.4703 0.7406 2.5 2.2424 2.5 4 0 2.484-2.016 4.5-4.5 4.5s-4.5-2.016-4.5-4.5c0-1.7576 1.0297-3.2594 2.5-4v-2.5h-8v2.5c1.4703 0.7406 2.5 2.2424 2.5 4 0 2.484-2.016 4.5-4.5 4.5s-4.5-2.016-4.5-4.5c0-1.7576 1.0297-3.2594 2.5-4v-2.5h-8v2.5c1.4703 0.7406 2.5 2.2424 2.5 4 0 2.484-2.016 4.5-4.5 4.5s-4.5-2.016-4.5-4.5c0-1.7576 1.0297-3.2594 2.5-4v-2.5h-8v2.5c1.4703 0.7406 2.5 2.2424 2.5 4 0 2.484-2.016 4.5-4.5 4.5s-4.5-2.016-4.5-4.5c0-1.7576 1.0297-3.2594 2.5-4v-2.5h-8v2.5c1.4703 0.7406 2.5 2.2424 2.5 4 0 2.484-2.016 4.5-4.5 4.5s-4.5-2.016-4.5-4.5c0-1.7576 1.0297-3.2594 2.5-4v-2.5h-8v2.5c1.4703 0.7406 2.5 2.2424 2.5 4 0 2.484-2.016 4.5-4.5 4.5s-4.5-2.016-4.5-4.5c0-1.7576 1.0297-3.2594 2.5-4v-2.5h-5z" filter="url(#filter3174)" fill="url(#linearGradient3638)"/>
 </g>
 <g id="layer4" transform="matrix(2.7915 0 0 2.7915 -5.6359 -9.146)">
  <path id="path3822" opacity="0.08" fill="url(#linearGradient3779)" d="m20.906 4.0312c-1.1199-0.039226-2.3944 0.038225-3.5 0.8125a0.90583 0.90583 0 0 0 -0.187 0.2188c-0.125-0.1239-0.171-0.3445-0.313-0.4375-0.565-0.3703-1.191-0.4854-1.781-0.5312-1.1793-0.091752-2.3755 0.078075-3.0312 0a0.90583 0.90583 0 0 0 -0.0625 0c-6.051-0.1796-10.659 5.6506-9.9389 11.437 0.0000552 0.04167-0.0000543 0.08333 0 0.125 0.030515 23.42-0.077539 46.823 0.03125 70.25a0.90583 0.90583 0 0 0 0 0.0625c0.42992 5.7967 6.1856 9.6082 11.656 8.9375 0.04188-0.0051 0.08315 0.0057 0.125 0 23.669-0.03053 47.324 0.07754 71-0.03125a0.90583 0.90583 0 0 0 0.0625 0c5.7967-0.42992 9.6082-6.1856 8.9375-11.656-0.0051-0.04188 0.0057-0.08315 0-0.125-0.03051-23.336 0.07754-46.657-0.03125-70a0.90583 0.90583 0 0 0 0 -0.0625c-0.424-5.7281-6.055-9.4653-11.468-8.905-0.101-0.0206-0.209-0.0169-0.312-0.0312-0.885-0.1227-1.849-0.0273-2.688 0.4062-0.269 0.1393-0.463 0.3966-0.687 0.625-0.373-0.424-0.836-0.8095-1.469-0.9688a0.90583 0.90583 0 0 0 -0.219 -0.0312c-3.033 0.0346-6.229-0.2378-9.406 0.125a0.90583 0.90583 0 0 0 -0.312 0.0948c-0.41429 0.21416-0.60892 0.61093-0.875 0.9375-0.18544-0.21407-0.27292-0.54653-0.5-0.6875-0.586-0.3639-1.232-0.4886-1.843-0.5313-1.222-0.0853-2.452 0.1125-3.156 0.0313a0.90583 0.90583 0 0 0 -0.21875 0c-0.813 0.1113-1.851-0.0235-2.969-0.0626-1.118-0.039-2.393 0.0373-3.5 0.8126a0.90583 0.90583 0 0 0 -0.188 0.2187c-0.014 0.02-0.016 0.0424-0.031 0.0625-0.15-0.1514-0.201-0.4234-0.375-0.5312-0.586-0.3639-1.232-0.4886-1.844-0.5313-1.222-0.0853-2.451 0.1125-3.156 0.0313a0.90583 0.90583 0 0 0 -0.21875 0c-0.813 0.1114-1.85-0.0234-2.969-0.0625-1.118-0.0391-2.393 0.0372-3.5 0.8125a0.90583 0.90583 0 0 0 -0.187 0.2187c-0.015 0.02-0.017 0.0424-0.031 0.0625-0.15-0.1514-0.201-0.4234-0.375-0.5312-0.586-0.3639-1.233-0.4886-1.844-0.5313-1.222-0.0853-2.451 0.1125-3.156 0.0313a0.90583 0.90583 0 0 0 -0.21875 0c-0.813 0.1113-1.85-0.0235-2.968-0.0626-1.119-0.039-2.393 0.0373-3.5 0.8126a0.90583 0.90583 0 0 0 -0.188 0.2187c-0.015 0.02-0.017 0.0424-0.031 0.0625-0.151-0.1514-0.202-0.4234-0.375-0.5312-0.586-0.3639-1.233-0.4886-1.844-0.5313-1.222-0.0853-2.452 0.1125-3.156 0.0313a0.90583 0.90583 0 0 0 -0.21875 0c-0.808 0.1107-1.849-0.0233-2.969-0.0626zm57.844 8.3128c0.20103 0.22509 0.34456 0.4936 0.625 0.65625v0.03125c0.04503 0.02958 0.0521 0.03375 0.09375 0.0625 0.98578 0.68046 1.0842 1.154 1 1.5312-0.0878 0.3932-0.57114 0.93273-1.2188 1.2188-0.6476 0.28602-1.3662 0.29638-1.7188 0.09375-0.33652-0.19342-0.58745-0.62548-0.4375-1.8125 0.13147-0.3489 0.62236-0.73748 1.2812-1.3125 0.13605-0.11874 0.23855-0.3256 0.375-0.46875zm-61.469 0.094c0.40819 0.45097 0.86354 0.81374 1.1875 1.0938 0.28627 0.24744 0.45681 0.45874 0.53125 0.625s0.09357 0.3039-0.03125 0.6875a0.90583 0.90583 0 0 0 0 0.03125c-0.32543 1.0955-0.74352 1.3106-1.1562 1.375-0.41273 0.06439-0.99383-0.12618-1.4688-0.5625-0.47492-0.43632-0.77059-1.0597-0.75-1.5s0.20083-0.85457 1.2188-1.2812a0.90583 0.90583 0 0 0 0.28125 -0.1875c0.09005-0.08243 0.1097-0.19271 0.1875-0.28125zm12.281 0c0.40819 0.45097 0.86354 0.81374 1.1875 1.0938 0.28627 0.24744 0.45681 0.45874 0.53125 0.625s0.09357 0.3039-0.03125 0.6875a0.90583 0.90583 0 0 0 0 0.03125c-0.32543 1.0955-0.74352 1.3106-1.1562 1.375-0.41273 0.06439-0.99383-0.12618-1.4688-0.5625-0.47492-0.43632-0.77059-1.0597-0.75-1.5s0.20083-0.85457 1.2188-1.2812a0.90583 0.90583 0 0 0 0.28125 -0.1875c0.09005-0.08243 0.1097-0.19271 0.1875-0.28125zm12.281 0c0.40819 0.45097 0.86354 0.81374 1.1875 1.0938 0.28627 0.24744 0.45681 0.45874 0.53125 0.625s0.09357 0.3039-0.03125 0.6875a0.90583 0.90583 0 0 0 0 0.03125c-0.32543 1.0955-0.74352 1.3106-1.1562 1.375-0.41273 0.06439-0.99383-0.12618-1.4688-0.5625-0.47492-0.43632-0.77059-1.0597-0.75-1.5s0.20083-0.85457 1.2188-1.2812a0.90583 0.90583 0 0 0 0.28125 -0.1875c0.09005-0.08243 0.1097-0.19271 0.1875-0.28125zm12.281 0c0.40834 0.45069 0.86385 0.81413 1.1875 1.0938 0.286 0.24709 0.45693 0.4588 0.53125 0.625s0.09375 0.30276-0.03125 0.6875a0.90583 0.90583 0 0 0 0 0.03125c-0.31729 1.0918-0.71382 1.3114-1.125 1.375-0.41118 0.06363-1.0217-0.15623-1.5-0.59375-0.47833-0.43752-0.76917-1.0311-0.75-1.4688 0.01917-0.43761 0.19881-0.8564 1.2188-1.2812a0.90583 0.90583 0 0 0 0.28125 -0.1875c0.09005-0.08243 0.1097-0.19271 0.1875-0.28125zm12.25 0c0.39574 0.43642 0.83522 0.79004 1.1562 1.0625 0.30195 0.25627 0.51351 0.45363 0.59375 0.625s0.09739 0.32374-0.03125 0.71875a0.90583 0.90583 0 0 0 0 0.03125c-0.31729 1.0918-0.71382 1.3114-1.125 1.375-0.41118 0.06363-1.0217-0.15623-1.5-0.59375-0.47833-0.43752-0.76917-1.0311-0.75-1.4688 0.01917-0.43761 0.19881-0.8564 1.2188-1.2812a0.90583 0.90583 0 0 0 0.28125 -0.1875c0.08798-0.08054 0.08078-0.1955 0.15625-0.28125z"/>
  <path id="path2961" opacity=".3" fill="url(#linearGradient3779)" d="m12 7c-3.878 0-7 3.122-7 7v71c0 3.878 3.122 7 7 7h72c3.878 0 7-3.122 7-7v-71c0-3.878-3.122-7-7-7h-3.25v3.5312c1.5053 0.74942 2.5625 2.284 2.5625 4.0625 0 2.5136-2.0506 4.5625-4.5938 4.5625-2.5431 0-4.625-2.0489-4.625-4.5625 0-1.7785 1.0572-3.3131 2.5625-4.0625v-3.531h-8.1875v3.5312c1.5053 0.74942 2.5625 2.284 2.5625 4.0625 0 2.5136-2.0506 4.5625-4.5938 4.5625-2.5431 0-4.625-2.0489-4.625-4.5625 0-1.7785 1.0572-3.3131 2.5625-4.0625v-3.531h-8.1875v3.5312c1.5053 0.74942 2.5625 2.284 2.5625 4.0625 0 2.5136-2.0506 4.5625-4.5938 4.5625-2.5431 0-4.625-2.0489-4.625-4.5625 0-1.7785 1.0572-3.3131 2.5625-4.0625v-3.531h-8.1875v3.5312c1.5053 0.74942 2.5625 2.284 2.5625 4.0625 0 2.5136-2.0819 4.5625-4.625 4.5625s-4.5938-2.0489-4.5938-4.5625c0-1.7785 1.0572-3.3131 2.5625-4.0625v-3.531h-8.1875v3.5312c1.5053 0.74942 2.5625 2.284 2.5625 4.0625 0 2.5136-2.0819 4.5625-4.625 4.5625s-4.5938-2.0489-4.5938-4.5625c0-1.7785 1.0572-3.3131 2.5625-4.0625v-3.531h-8.1875v3.5312c1.5053 0.74942 2.5625 2.284 2.5625 4.0625 0 2.5136-2.0819 4.5625-4.625 4.5625s-4.5938-2.0489-4.5938-4.5625c0-1.7785 1.0572-3.3131 2.5625-4.0625l0.004-3.531h-3.25z"/>
  <path id="path3781" opacity=".45" fill="url(#linearGradient3786)" d="m12 7c-3.324 0-6 2.676-6 6v72c0 3.324 2.676 6 6 6h72c3.324 0 6-2.676 6-6v-72c0-3.324-2.676-6-6-6h-4v3.5c1.4703 0.7406 2.5 2.2424 2.5 4 0 2.484-2.016 4.5-4.5 4.5s-4.5-2.016-4.5-4.5c0-1.7576 1.0297-3.2594 2.5-4v-3.5h-8v3.5c1.4703 0.7406 2.5 2.2424 2.5 4 0 2.484-2.016 4.5-4.5 4.5s-4.5-2.016-4.5-4.5c0-1.7576 1.0297-3.2594 2.5-4v-3.5h-8v3.5c1.4703 0.7406 2.5 2.2424 2.5 4 0 2.484-2.016 4.5-4.5 4.5s-4.5-2.016-4.5-4.5c0-1.7576 1.0297-3.2594 2.5-4v-3.5h-8v3.5c1.4703 0.7406 2.5 2.2424 2.5 4 0 2.484-2.016 4.5-4.5 4.5s-4.5-2.016-4.5-4.5c0-1.7576 1.0297-3.2594 2.5-4v-3.5h-8v3.5c1.4703 0.7406 2.5 2.2424 2.5 4 0 2.484-2.016 4.5-4.5 4.5s-4.5-2.016-4.5-4.5c0-1.7576 1.0297-3.2594 2.5-4v-3.5h-8v3.5c1.4703 0.7406 2.5 2.2424 2.5 4 0 2.484-2.016 4.5-4.5 4.5s-4.5-2.016-4.5-4.5c0-1.7576 1.0297-3.2594 2.5-4v-3.5h-4z"/>
  <path id="path3792" opacity=".15" fill="url(#linearGradient3779)" d="m12 6.0312c-4.3908 0-7.9688 3.578-7.9688 7.9688v71c0 4.3908 3.5779 7.9688 7.9688 7.9688h72c4.3908 0 7.9688-3.5779 7.9688-7.9688v-71c0-4.3908-3.578-7.9688-7.969-7.9688h-3.25a0.95563 0.95563 0 0 0 -0.969 0.9688v3.5312a0.95563 0.95563 0 0 0 0.531 0.844c1.1992 0.59704 2.0312 1.8189 2.0312 3.2188 0 1.9939-1.5951 3.5938-3.625 3.5938s-3.6562-1.6078-3.6562-3.5938c0-1.3999 0.83203-2.6217 2.0312-3.2188a0.95563 0.95563 0 0 0 0.532 -0.844v-3.5308a0.95563 0.95563 0 0 0 -0.969 -0.9688h-8.1875a0.95563 0.95563 0 0 0 -0.968 0.9688v3.5312a0.95563 0.95563 0 0 0 0.53125 0.84375c1.1992 0.59704 2.0312 1.8189 2.0312 3.2188 0 1.9939-1.5951 3.5938-3.625 3.5938s-3.6562-1.6078-3.6562-3.5938c0-1.3999 0.83203-2.6217 2.0312-3.2188a0.95563 0.95563 0 0 0 0.532 -0.844l0.001-3.531a0.95563 0.95563 0 0 0 -0.969 -0.9688h-8.1875a0.95563 0.95563 0 0 0 -0.969 0.9688v3.5312a0.95563 0.95563 0 0 0 0.531 0.844c1.1992 0.59704 2.0312 1.8189 2.0312 3.2188 0 1.9939-1.5951 3.5938-3.625 3.5938s-3.6562-1.6078-3.6562-3.5938c0-1.3999 0.83203-2.6217 2.0312-3.2188a0.95563 0.95563 0 0 0 0.531 -0.844v-3.531a0.95563 0.95563 0 0 0 -0.968 -0.9688h-8.1875a0.95563 0.95563 0 0 0 -0.968 0.9688v3.5312a0.95563 0.95563 0 0 0 0.53125 0.84375c1.1992 0.59704 2.0312 1.8189 2.0312 3.2188 0 1.986-1.6263 3.5938-3.6562 3.5938s-3.625-1.5999-3.625-3.5938c0-1.3999 0.83203-2.6217 2.0312-3.2188a0.95563 0.95563 0 0 0 0.533 -0.843v-3.5312a0.95563 0.95563 0 0 0 -0.969 -0.9688h-8.1875a0.95563 0.95563 0 0 0 -0.968 0.9688v3.5312a0.95563 0.95563 0 0 0 0.532 0.844c1.1992 0.59704 2.0312 1.8189 2.0312 3.2188 0 1.986-1.6263 3.5938-3.6562 3.5938s-3.625-1.5999-3.625-3.5938c0-1.3999 0.83203-2.6217 2.0312-3.2188a0.95563 0.95563 0 0 0 0.531 -0.844v-3.531a0.95563 0.95563 0 0 0 -0.969 -0.9688h-8.1875a0.95563 0.95563 0 0 0 -0.969 0.9688v3.5312a0.95563 0.95563 0 0 0 0.53125 0.84375c1.1992 0.59704 2.0312 1.8189 2.0312 3.2188 0 1.986-1.6263 3.5938-3.6562 3.5938s-3.625-1.5999-3.625-3.5938c0-1.3999 0.83203-2.6217 2.0312-3.2188a0.95563 0.95563 0 0 0 0.532 -0.844l0.001-3.531a0.95563 0.95563 0 0 0 -0.969 -0.9686h-3.25z"/>
  <path id="path3800" opacity=".1" fill="url(#linearGradient3779)" d="m12 5c-5.4829-0.1628-9.7257 5.247-9 10.519 0.0311 23.465-0.0622 46.934 0.0468 70.397 0.3902 5.262 5.7137 8.762 10.725 8.084 23.714-0.031 47.432 0.062 71.144-0.047 5.262-0.39 8.762-5.714 8.084-10.725-0.031-23.381 0.062-46.765-0.047-70.144-0.39-5.2619-5.714-8.762-10.725-8.084-1.534-0.3127-3.676 0.3364-3.478 2.2531 0.22412 1.6435-0.70048 4.0832 1.125 5.0281 5.1786 3.4016-4.6214 7.7713-3.6775 1.5959 0.48842-1.4964 2.8828-1.914 2.4587-3.8522-0.12198-1.7119 0.64957-4.4212-1.625-4.9937-3.0908 0.035211-6.2559-0.22404-9.3125 0.125-2.0708 1.0704-1.0057 3.8042-1.2188 5.6562 0.30778 1.8073 3.218 2.0449 2.4811 4.3078-1.5244 5.2453-8.3381-0.99555-3.3873-3.0578 1.4663-1.3422 0.53172-3.6817 0.75-5.4375-0.685-2.4445-3.665-1.4106-5.515-1.624-1.984 0.2718-4.323-0.6158-6.05 0.5938-1.116 1.5002-0.44 3.6014-0.531 5.3442 0.41451 1.6962 3.1665 1.9768 2.4498 4.1828-1.525 5.245-8.338-0.996-3.388-3.059 1.467-1.342 0.532-3.6812 0.75-5.437-0.684-2.4455-3.663-1.4116-5.512-1.625-1.984 0.2718-4.323-0.6158-6.05 0.5938-1.1159 1.5002-0.44067 3.6014-0.53125 5.3438 0.4123 1.6952 3.1652 1.9739 2.4484 4.1768-1.561 5.254-8.327-0.98-3.386-3.052 1.467-1.342 0.532-3.6812 0.75-5.437-0.684-2.4455-3.663-1.4116-5.513-1.625-1.983 0.2718-4.322-0.6158-6.049 0.5938-1.116 1.5002-0.441 3.6014-0.531 5.3442 0.4123 1.6952 3.1652 1.9739 2.4484 4.1768-1.561 5.253-8.328-0.981-3.386-3.053 1.466-1.342 0.532-3.6812 0.75-5.437-0.684-2.4455-3.663-1.4116-5.513-1.625-1.983 0.2718-4.322-0.6158-6.049 0.5938-1.1159 1.5002-0.44067 3.6014-0.53125 5.3438 0.4123 1.6952 3.1652 1.9739 2.4484 4.1768-1.561 5.254-8.328-0.98-3.386-3.052 1.467-1.342 0.532-3.6808 0.751-5.4366-0.602-2.4121-3.459-1.4154-5.219-1.625z"/>
 </g>
 <g id="layer1" transform="matrix(2.7915 0 0 2.7915 -5.6359 -9.146)">
  <path id="rect2419" fill="url(#linearGradient3646)" d="m12 6c-3.324 0-6 2.676-6 6v72c0 3.324 2.676 6 6 6h72c3.324 0 6-2.676 6-6v-72c0-3.324-2.676-6-6-6h-4v3.5c1.4703 0.7406 2.5 2.2424 2.5 4 0 2.484-2.016 4.5-4.5 4.5s-4.5-2.016-4.5-4.5c0-1.7576 1.0297-3.2594 2.5-4v-3.5h-8v3.5c1.4703 0.7406 2.5 2.2424 2.5 4 0 2.484-2.016 4.5-4.5 4.5s-4.5-2.016-4.5-4.5c0-1.7576 1.0297-3.2594 2.5-4v-3.5h-8v3.5c1.4703 0.7406 2.5 2.2424 2.5 4 0 2.484-2.016 4.5-4.5 4.5s-4.5-2.016-4.5-4.5c0-1.7576 1.0297-3.2594 2.5-4v-3.5h-8v3.5c1.4703 0.7406 2.5 2.2424 2.5 4 0 2.484-2.016 4.5-4.5 4.5s-4.5-2.016-4.5-4.5c0-1.7576 1.0297-3.2594 2.5-4v-3.5h-8v3.5c1.4703 0.7406 2.5 2.2424 2.5 4 0 2.484-2.016 4.5-4.5 4.5s-4.5-2.016-4.5-4.5c0-1.7576 1.0297-3.2594 2.5-4v-3.5h-8v3.5c1.4703 0.7406 2.5 2.2424 2.5 4 0 2.484-2.016 4.5-4.5 4.5s-4.5-2.016-4.5-4.5c0-1.7576 1.0297-3.2594 2.5-4v-3.5h-4z"/>
  <path id="rect3728" opacity=".5" fill="url(#linearGradient3188)" d="m12 6c-3.324 0-6 2.676-6 6v72c0 0.33472 0.04135 0.6507 0.09375 0.96875 0.0487 0.2956 0.09704 0.59692 0.1875 0.875 0.00988 0.03038 0.020892 0.0636 0.03125 0.09375 0.098865 0.28777 0.23488 0.54745 0.375 0.8125 0.14459 0.27351 0.31562 0.53562 0.5 0.78125 0.18438 0.24564 0.37378 0.47347 0.59375 0.6875 0.43995 0.42806 0.94291 0.81453 1.5 1.0938 0.27854 0.13961 0.57347 0.24695 0.875 0.34375-0.2562-0.10022-0.48671-0.23627-0.71875-0.375-0.00741-0.0044-0.023866 0.0045-0.03125 0-0.0319-0.019-0.0622-0.042-0.0937-0.062-0.1204-0.077-0.231-0.164-0.3437-0.25-0.1062-0.081-0.2133-0.161-0.3126-0.25-0.1778-0.162-0.3473-0.346-0.4999-0.531-0.1075-0.131-0.2183-0.266-0.3124-0.407-0.0251-0.038-0.0385-0.086-0.0626-0.125-0.0647-0.103-0.1302-0.204-0.1874-0.312-0.1011-0.195-0.2057-0.416-0.2813-0.625-0.008-0.022-0.0236-0.041-0.0313-0.063-0.0318-0.092-0.0358-0.187-0.0624-0.281-0.0304-0.107-0.0704-0.203-0.0938-0.313-0.0729-0.341-0.125-0.698-0.125-1.062v-72c0-2.782 2.2182-5 5-5h4v-2h-4zm8 0v2h8v-2h-8zm12 0v2h8v-2h-8zm12 0v2h8v-2h-8zm12 0v2h8v-2h-8zm12 0v2h8v-2h-8zm12 0v2h4c2.7818 0 5 2.2182 5 5v72c0 0.3643-0.05212 0.72099-0.125 1.0625-0.04415 0.20689-0.08838 0.39766-0.15625 0.59375-0.0077 0.02195-0.0233 0.04069-0.03125 0.0625-0.06274 0.17374-0.13838 0.36745-0.21875 0.53125-0.04158 0.0828-0.07904 0.16995-0.125 0.25-0.0546 0.09721-0.12677 0.18835-0.1875 0.28125-0.09411 0.14096-0.20492 0.276-0.3125 0.40625-0.14317 0.17445-0.30314 0.347-0.46875 0.5-0.01117 0.0102-0.01998 0.02115-0.03125 0.03125-0.13839 0.12556-0.28509 0.23444-0.4375 0.34375-0.10257 0.07315-0.20432 0.15336-0.3125 0.21875-0.0074 0.0045-0.02384-0.0044-0.03125 0-0.23204 0.13873-0.46255 0.27478-0.71875 0.375 0.30153-0.0968 0.59646-0.20414 0.875-0.34375 0.55709-0.27922 1.0601-0.66569 1.5-1.0938 0.21997-0.21403 0.40937-0.44186 0.59375-0.6875s0.35541-0.50774 0.5-0.78125c0.14012-0.26505 0.27614-0.52473 0.375-0.8125 0.01041-0.03078 0.02133-0.06274 0.03125-0.09375 0.09046-0.27808 0.1388-0.5794 0.1875-0.875 0.053-0.318 0.094-0.634 0.094-0.969v-72c0-3.324-2.676-6-6-6h-4z"/>
  <path id="path3615" opacity=".6" fill="url(#radialGradient2855)" d="m12 90c-3.324 0-6-2.676-6-6v-72c0-0.33472 0.04135-0.6507 0.09375-0.96875 0.0487-0.2956 0.09704-0.59692 0.1875-0.875 0.0099-0.03 0.0209-0.063 0.0313-0.094 0.0989-0.2873 0.2349-0.547 0.375-0.812 0.1446-0.2735 0.3156-0.5356 0.5-0.7812 0.1844-0.2457 0.3738-0.4735 0.5937-0.6876 0.44-0.428 0.943-0.8145 1.5-1.0937 0.2786-0.1396 0.5735-0.2469 0.8748-0.3437-0.256 0.1002-0.4865 0.2362-0.7185 0.375-0.00741 0.0044-0.023866-0.0045-0.03125 0-0.031933 0.0193-0.062293 0.04251-0.09375 0.0625-0.1204 0.0767-0.23102 0.16351-0.34375 0.25-0.10617 0.0808-0.21328 0.16111-0.3125 0.25-0.1779 0.1614-0.3474 0.3453-0.5 0.5312-0.1075 0.1303-0.2183 0.2653-0.3124 0.4063-0.0251 0.0383-0.0385 0.0858-0.0626 0.125-0.0647 0.103-0.1302 0.2045-0.1874 0.3124-0.1011 0.1948-0.2057 0.4158-0.2813 0.625-0.008 0.0219-0.0236 0.0406-0.0313 0.0626-0.0318 0.0919-0.0358 0.1868-0.0624 0.2812-0.0304 0.1066-0.0704 0.203-0.0938 0.3125-0.0729 0.3415-0.125 0.6985-0.125 1.0625v72c0 2.7818 2.2182 5 5 5h72c2.7818 0 5-2.2182 5-5v-72c0-0.364-0.052-0.721-0.125-1.0625-0.044-0.2069-0.088-0.3977-0.156-0.5937-0.008-0.022-0.024-0.0407-0.031-0.0626-0.063-0.1737-0.139-0.3674-0.219-0.5312-0.042-0.0828-0.079-0.17-0.125-0.25-0.055-0.0972-0.127-0.1884-0.188-0.2812-0.094-0.141-0.205-0.276-0.312-0.4063-0.143-0.1745-0.303-0.347-0.469-0.5-0.011-0.0102-0.02-0.0211-0.031-0.0313-0.139-0.1255-0.285-0.2344-0.438-0.3437-0.102-0.0731-0.204-0.1534-0.312-0.2187-0.0074-0.0045-0.02384 0.0044-0.03125 0-0.23204-0.13873-0.46255-0.27478-0.71875-0.375 0.30153 0.0968 0.59646 0.20414 0.875 0.34375 0.55709 0.27922 1.0601 0.66569 1.5 1.0938 0.21997 0.21403 0.40937 0.44186 0.59375 0.6875s0.35541 0.50774 0.5 0.78125c0.14012 0.26505 0.27614 0.52473 0.375 0.8125 0.01041 0.03078 0.02133 0.06274 0.03125 0.09375 0.09046 0.27808 0.1388 0.5794 0.1875 0.875 0.053 0.318 0.094 0.634 0.094 0.969v72c0 3.324-2.676 6-6 6h-72z"/>
 </g>
 <path id="path7941" d="m70.325 193.9 11.788-141.21 24.107 1.508-18.08 140.88-17.815-1.18" stroke="#000" stroke-width="3.1963px" fill="none"/>
 <path id="path8033" d="m106.72 57.7c120.46 0.3179 75.257 99.886-23.554 68.335 82.375 14.117 52.339 77.24 101.42 93.663" stroke="#000" stroke-width="10" fill="none"/>
 <path id="path3140" d="m70.383 193.42c4.267 56.603 16.442 3.7077 17.579 1.8634" stroke="#000" stroke-width="3.1963px" fill="none"/>
 <path id="path3111" d="m79.115 192.98c-3.87-0.27415-7.0622-0.52861-7.0938-0.56524-0.03163-0.0366 2.539-31.11 5.7127-69.052l5.7705-68.985 1.4566 0.0656c4.2798 0.19262 19.312 1.1868 19.409 1.2835 0.11236 0.11227-8.0683 64.491-9.0346 71.101-0.27848 1.9044-2.2563 17.307-4.3952 34.226-2.1388 16.92-3.9547 31.154-4.0353 31.63-0.08056 0.4761-0.28301 0.85032-0.44981 0.83157-0.16682-0.0197-3.4696-0.25849-7.3396-0.53272z" stroke="#1a1a1a" stroke-width=".26635" fill="#d71414"/>
 <path id="path4195" d="m72.643 210.57 10.522 0.85891" stroke="#000" stroke-width="2.7915px" fill="none"/>
 <path id="path4203" fill="#666" d="m76.522 209.59-2.6696-0.23616-0.16308-0.61318c-0.40558-1.525-1.6699-12.912-1.4554-13.108 0.20001-0.18258 13.613 0.85986 13.587 1.056-0.07219 0.56058-2.3956 8.0479-3.247 10.464l-0.9649 2.7379-1.2089-0.0321c-0.6649-0.0172-2.4102-0.13844-3.8785-0.26827z"/>
 <path id="path4207" d="m75.909 216.6c-0.58912-1.1053-1.6456-4.3211-1.4755-4.4912 0.18776-0.18786 5.9395 0.45295 5.9368 0.6613-0.0048 0.37289-1.6835 3.3542-2.3933 4.2504-0.89793 1.1337-1.281 1.0558-2.068-0.42057z" stroke="#000" stroke-width="2.7915"/>
</svg>
