<?xml version="1.0" encoding="UTF-8" standalone="no"?>
<!-- Created with Inkscape (http://www.inkscape.org/) -->

<svg
   xmlns:dc="http://purl.org/dc/elements/1.1/"
   xmlns:svg="http://www.w3.org/2000/svg"
   xmlns="http://www.w3.org/2000/svg"
   xmlns:xlink="http://www.w3.org/1999/xlink"
   version="1.0"
   width="256"
   height="256"
   id="svg2408">
  <defs
     id="defs2410">
    <linearGradient
       x1="45.448002"
       y1="92.540001"
       x2="45.448002"
       y2="7.0165"
       id="ButtonShadow"
       gradientUnits="userSpaceOnUse"
       gradientTransform="scale(1.0059,0.99417)">
      <stop
         id="stop3750"
         style="stop-color:#000000;stop-opacity:1"
         offset="0" />
      <stop
         id="stop3752"
         style="stop-color:#000000;stop-opacity:0.58824003"
         offset="1" />
    </linearGradient>
    <filter
       color-interpolation-filters="sRGB"
       id="filter3174">
      <feGaussianBlur
         id="feGaussianBlur3176"
         stdDeviation="1.71" />
    </filter>
    <linearGradient
       x1="36.356998"
       y1="6"
       x2="36.356998"
       y2="63.893002"
       id="linearGradient3188"
       gradientUnits="userSpaceOnUse">
      <stop
         id="stop3739"
         style="stop-color:#ffffff;stop-opacity:1"
         offset="0" />
      <stop
         id="stop3741"
         style="stop-color:#ffffff;stop-opacity:0"
         offset="1" />
    </linearGradient>
    <linearGradient
       x1="45.448002"
       y1="92.540001"
       x2="45.448002"
       y2="7.0165"
       id="linearGradient3638"
       xlink:href="#ButtonShadow"
       gradientUnits="userSpaceOnUse"
       gradientTransform="scale(1.0059,0.99417)" />
    <linearGradient
       x1="48"
       y1="90"
       x2="48"
       y2="5.9877"
       id="linearGradient3646"
       gradientUnits="userSpaceOnUse">
      <stop
         id="stop3599"
         style="stop-color:#dcdcdc;stop-opacity:1"
         offset="0" />
      <stop
         id="stop3601"
         style="stop-color:#f5f5f5;stop-opacity:1"
         offset="1" />
    </linearGradient>
    <radialGradient
       cx="48"
       cy="90.171997"
       r="42"
       id="radialGradient2855"
       gradientUnits="userSpaceOnUse"
       gradientTransform="matrix(1.1573,0,0,0.99591,-7.551,0.19713)">
      <stop
         id="stop3739-6"
         style="stop-color:#ffffff;stop-opacity:1"
         offset="0" />
      <stop
         id="stop3741-4"
         style="stop-color:#ffffff;stop-opacity:0"
         offset="1" />
    </radialGradient>
    <linearGradient
       x1="48"
       y1="90"
       x2="48"
       y2="5.9877"
       id="linearGradient3779"
       xlink:href="#ButtonShadow"
       gradientUnits="userSpaceOnUse"
       gradientTransform="matrix(1.0238,0,0,1.0119,-1.1429,0.92857)" />
    <linearGradient
       x1="48"
       y1="90"
       x2="48"
       y2="5.9877"
       id="linearGradient3786"
       gradientUnits="userSpaceOnUse"
       gradientTransform="translate(0,1)">
      <stop
         id="stop3750-8"
         style="stop-color:#000000;stop-opacity:1"
         offset="0" />
      <stop
         id="stop3752-5"
         style="stop-color:#000000;stop-opacity:0.58824003"
         offset="1" />
    </linearGradient>
    <linearGradient
       x1="48"
       y1="90"
       x2="48"
       y2="5.9877"
       id="linearGradient3075"
       xlink:href="#ButtonShadow"
       gradientUnits="userSpaceOnUse"
       gradientTransform="matrix(1.0238,0,0,1.0119,-1.1429,0.92857)" />
    <linearGradient
       x1="48"
       y1="90"
       x2="48"
       y2="5.9877"
       id="linearGradient3077"
       xlink:href="#ButtonShadow"
       gradientUnits="userSpaceOnUse"
       gradientTransform="matrix(1.0238,0,0,1.0119,-1.1429,0.92857)" />
    <linearGradient
       x1="48"
       y1="90"
       x2="48"
       y2="5.9877"
       id="linearGradient3079"
       xlink:href="#ButtonShadow"
       gradientUnits="userSpaceOnUse"
       gradientTransform="matrix(1.0238,0,0,1.0119,-1.1429,0.92857)" />
  </defs>
  <g
     transform="translate(-2.0189164,161.01785)"
     id="layer2"
     style="display:none">
    <path
       d="M 11,7 C 7.676,7 5,9.676 5,13 v 73 c 0,3.324 2.676,6 6,6 h 74 c 3.324,0 6,-2.676 6,-6 V 13 C 91,9.676 88.324,7 85,7 h -5 v 2.5 c 1.4703,0.7406 2.5,2.2424 2.5,4 0,2.484 -2.016,4.5 -4.5,4.5 -2.484,0 -4.5,-2.016 -4.5,-4.5 0,-1.7576 1.0297,-3.2594 2.5,-4 V 7 h -8 v 2.5 c 1.4703,0.7406 2.5,2.2424 2.5,4 0,2.484 -2.016,4.5 -4.5,4.5 -2.484,0 -4.5,-2.016 -4.5,-4.5 0,-1.7576 1.0297,-3.2594 2.5,-4 V 7 h -8 v 2.5 c 1.4703,0.7406 2.5,2.2424 2.5,4 0,2.484 -2.016,4.5 -4.5,4.5 -2.484,0 -4.5,-2.016 -4.5,-4.5 0,-1.7576 1.0297,-3.2594 2.5,-4 V 7 h -8 v 2.5 c 1.4703,0.7406 2.5,2.2424 2.5,4 0,2.484 -2.016,4.5 -4.5,4.5 -2.484,0 -4.5,-2.016 -4.5,-4.5 0,-1.7576 1.0297,-3.2594 2.5,-4 V 7 h -8 v 2.5 c 1.4703,0.7406 2.5,2.2424 2.5,4 0,2.484 -2.016,4.5 -4.5,4.5 -2.484,0 -4.5,-2.016 -4.5,-4.5 0,-1.7576 1.0297,-3.2594 2.5,-4 V 7 h -8 v 2.5 c 1.4703,0.7406 2.5,2.2424 2.5,4 0,2.484 -2.016,4.5 -4.5,4.5 -2.484,0 -4.5,-2.016 -4.5,-4.5 0,-1.7576 1.0297,-3.2594 2.5,-4 V 7 h -5 z"
       id="rect3745"
       style="opacity:0.9;fill:url(#linearGradient3638);filter:url(#filter3174)" />
  </g>
  <g
     transform="matrix(2.791535,0,0,2.791535,-5.6358758,-9.1460004)"
     id="layer4">
    <path
       d="m 20.906,4.0312 c -1.1199,-0.039226 -2.3944,0.038225 -3.5,0.8125 A 0.90583,0.90583 0 0 0 17.219,5.0625 C 17.094,4.9386 17.048,4.718 16.906,4.625 16.341,4.2547 15.715,4.1396 15.125,4.0938 c -1.1793,-0.091752 -2.3755,0.078075 -3.0312,0 a 0.90583,0.90583 0 0 0 -0.0625,0 C 5.981,3.9142 1.3733,9.7444 2.0931,15.5308 c 5.52e-5,0.04167 -5.43e-5,0.08333 0,0.125 0.030515,23.42 -0.077539,46.823 0.03125,70.25 a 0.90583,0.90583 0 0 0 0,0.0625 c 0.42992,5.7967 6.1856,9.6082 11.656,8.9375 0.04188,-0.0051 0.08315,0.0057 0.125,0 23.669,-0.03053 47.324,0.07754 71,-0.03125 a 0.90583,0.90583 0 0 0 0.0625,0 c 5.7967,-0.42992 9.6082,-6.1856 8.9375,-11.656 -0.0051,-0.04188 0.0057,-0.08315 0,-0.125 -0.03051,-23.336 0.07754,-46.657 -0.03125,-70 a 0.90583,0.90583 0 0 0 0,-0.0625 c -0.424,-5.7281 -6.055,-9.4653 -11.468,-8.905 -0.101,-0.0206 -0.209,-0.0169 -0.312,-0.0312 -0.885,-0.1227 -1.849,-0.0273 -2.688,0.4062 -0.269,0.1393 -0.463,0.3966 -0.687,0.625 -0.373,-0.424 -0.836,-0.8095 -1.469,-0.9688 a 0.90583,0.90583 0 0 0 -0.219,-0.0312 c -3.033,0.0346 -6.229,-0.2378 -9.406,0.125 A 0.90583,0.90583 0 0 0 67.3126,4.3448 c -0.41429,0.21416 -0.60892,0.61093 -0.875,0.9375 -0.18544,-0.21407 -0.27292,-0.54653 -0.5,-0.6875 -0.586,-0.3639 -1.232,-0.4886 -1.843,-0.5313 -1.222,-0.0853 -2.452,0.1125 -3.156,0.0313 a 0.90583,0.90583 0 0 0 -0.21875,0 c -0.813,0.1113 -1.851,-0.0235 -2.969,-0.0626 -1.118,-0.039 -2.393,0.0373 -3.5,0.8126 a 0.90583,0.90583 0 0 0 -0.188,0.2187 c -0.014,0.02 -0.016,0.0424 -0.031,0.0625 -0.15,-0.1514 -0.201,-0.4234 -0.375,-0.5312 -0.586,-0.3639 -1.232,-0.4886 -1.844,-0.5313 -1.222,-0.0853 -2.451,0.1125 -3.156,0.0313 a 0.90583,0.90583 0 0 0 -0.21875,0 C 47.62535,4.20616 46.5877,4.07135 45.4693,4.0323 44.351,3.99325 43.0764,4.069512 41.9693,4.8448 a 0.90583,0.90583 0 0 0 -0.187,0.2187 c -0.015,0.02 -0.017,0.0424 -0.031,0.0625 -0.15,-0.1514 -0.201,-0.4234 -0.375,-0.5312 -0.586,-0.3639 -1.233,-0.4886 -1.844,-0.5313 -1.222,-0.0853 -2.451,0.1125 -3.156,0.0313 a 0.90583,0.90583 0 0 0 -0.21875,0 c -0.813,0.1113 -1.85,-0.0235 -2.968,-0.0626 -1.119,-0.039 -2.393,0.0373 -3.5,0.8126 a 0.90583,0.90583 0 0 0 -0.188,0.2187 c -0.015,0.02 -0.017,0.0424 -0.031,0.0625 -0.151,-0.1514 -0.202,-0.4234 -0.375,-0.5312 -0.586,-0.3639 -1.233,-0.4886 -1.844,-0.5313 -1.222,-0.0853 -2.452,0.1125 -3.156,0.0313 a 0.90583,0.90583 0 0 0 -0.21875,0 c -0.808,0.1107 -1.849,-0.0233 -2.969,-0.0626 z M 78.75,12.344 c 0.20103,0.22509 0.34456,0.4936 0.625,0.65625 v 0.03125 c 0.04503,0.02958 0.0521,0.03375 0.09375,0.0625 0.98578,0.68046 1.0842,1.154 1,1.5312 -0.0878,0.3932 -0.57114,0.93273 -1.2188,1.2188 -0.6476,0.28602 -1.3662,0.29638 -1.7188,0.09375 -0.33652,-0.19342 -0.58745,-0.62548 -0.4375,-1.8125 0.13147,-0.3489 0.62236,-0.73748 1.2812,-1.3125 0.13605,-0.11874 0.23855,-0.3256 0.375,-0.46875 z m -61.469,0.094 c 0.40819,0.45097 0.86354,0.81374 1.1875,1.0938 0.28627,0.24744 0.45681,0.45874 0.53125,0.625 0.07444,0.16626 0.09357,0.3039 -0.03125,0.6875 a 0.90583,0.90583 0 0 0 0,0.03125 c -0.32543,1.0955 -0.74352,1.3106 -1.1562,1.375 -0.41273,0.06439 -0.99383,-0.12618 -1.4688,-0.5625 -0.47492,-0.43632 -0.77059,-1.0597 -0.75,-1.5 0.02059,-0.4403 0.20083,-0.85457 1.2188,-1.2812 a 0.90583,0.90583 0 0 0 0.28125,-0.1875 c 0.09005,-0.08243 0.1097,-0.19271 0.1875,-0.28125 z m 12.281,0 c 0.40819,0.45097 0.86354,0.81374 1.1875,1.0938 0.28627,0.24744 0.45681,0.45874 0.53125,0.625 0.07444,0.16626 0.09357,0.3039 -0.03125,0.6875 a 0.90583,0.90583 0 0 0 0,0.03125 c -0.32543,1.0955 -0.74352,1.3106 -1.1562,1.375 -0.41273,0.06439 -0.99383,-0.12618 -1.4688,-0.5625 -0.47492,-0.43632 -0.77059,-1.0597 -0.75,-1.5 0.02059,-0.4403 0.20083,-0.85457 1.2188,-1.2812 a 0.90583,0.90583 0 0 0 0.28125,-0.1875 c 0.09005,-0.08243 0.1097,-0.19271 0.1875,-0.28125 z m 12.281,0 c 0.40819,0.45097 0.86354,0.81374 1.1875,1.0938 0.28627,0.24744 0.45681,0.45874 0.53125,0.625 0.07444,0.16626 0.09357,0.3039 -0.03125,0.6875 a 0.90583,0.90583 0 0 0 0,0.03125 c -0.32543,1.0955 -0.74352,1.3106 -1.1562,1.375 -0.41273,0.06439 -0.99383,-0.12618 -1.4688,-0.5625 -0.47492,-0.43632 -0.77059,-1.0597 -0.75,-1.5 0.02059,-0.4403 0.20083,-0.85457 1.2188,-1.2812 a 0.90583,0.90583 0 0 0 0.28125,-0.1875 c 0.09005,-0.08243 0.1097,-0.19271 0.1875,-0.28125 z m 12.281,0 c 0.40834,0.45069 0.86385,0.81413 1.1875,1.0938 0.286,0.24709 0.45693,0.4588 0.53125,0.625 0.07432,0.1662 0.09375,0.30276 -0.03125,0.6875 a 0.90583,0.90583 0 0 0 0,0.03125 c -0.31729,1.0918 -0.71382,1.3114 -1.125,1.375 -0.41118,0.06363 -1.0217,-0.15623 -1.5,-0.59375 -0.47833,-0.43752 -0.76917,-1.0311 -0.75,-1.4688 0.01917,-0.43761 0.19881,-0.8564 1.2188,-1.2812 a 0.90583,0.90583 0 0 0 0.28125,-0.1875 c 0.09005,-0.08243 0.1097,-0.19271 0.1875,-0.28125 z m 12.25,0 c 0.39574,0.43642 0.83522,0.79004 1.1562,1.0625 0.30195,0.25627 0.51351,0.45363 0.59375,0.625 0.08024,0.17137 0.09739,0.32374 -0.03125,0.71875 a 0.90583,0.90583 0 0 0 0,0.03125 c -0.31729,1.0918 -0.71382,1.3114 -1.125,1.375 -0.41118,0.06363 -1.0217,-0.15623 -1.5,-0.59375 -0.47833,-0.43752 -0.76917,-1.0311 -0.75,-1.4688 0.01917,-0.43761 0.19881,-0.8564 1.2188,-1.2812 a 0.90583,0.90583 0 0 0 0.28125,-0.1875 c 0.08798,-0.08054 0.08078,-0.1955 0.15625,-0.28125 z"
       id="path3822"
       style="opacity:0.07999998;fill:url(#linearGradient3075)" />
    <path
       d="M 12,7 C 8.122,7 5,10.122 5,14 v 71 c 0,3.878 3.122,7 7,7 h 72 c 3.878,0 7,-3.122 7,-7 V 14 C 91,10.122 87.878,7 84,7 h -3.25 v 3.5312 c 1.5053,0.74942 2.5625,2.284 2.5625,4.0625 0,2.5136 -2.0506,4.5625 -4.5938,4.5625 -2.5431,0 -4.625,-2.0489 -4.625,-4.5625 0,-1.7785 1.0572,-3.3131 2.5625,-4.0625 V 7 h -8.1875 v 3.5312 c 1.5053,0.74942 2.5625,2.284 2.5625,4.0625 0,2.5136 -2.0506,4.5625 -4.5938,4.5625 -2.5431,0 -4.625,-2.0489 -4.625,-4.5625 0,-1.7785 1.0572,-3.3131 2.5625,-4.0625 V 7 h -8.1875 v 3.5312 c 1.5053,0.74942 2.5625,2.284 2.5625,4.0625 0,2.5136 -2.0506,4.5625 -4.5938,4.5625 -2.5431,0 -4.625,-2.0489 -4.625,-4.5625 0,-1.7785 1.0572,-3.3131 2.5625,-4.0625 V 7 h -8.1875 v 3.5312 c 1.5053,0.74942 2.5625,2.284 2.5625,4.0625 0,2.5136 -2.0819,4.5625 -4.625,4.5625 -2.5431,0 -4.5938,-2.0489 -4.5938,-4.5625 0,-1.7785 1.0572,-3.3131 2.5625,-4.0625 V 7 h -8.1875 v 3.5312 c 1.5053,0.74942 2.5625,2.284 2.5625,4.0625 0,2.5136 -2.0819,4.5625 -4.625,4.5625 -2.5431,0 -4.5938,-2.0489 -4.5938,-4.5625 0,-1.7785 1.0572,-3.3131 2.5625,-4.0625 V 7 h -8.1875 v 3.5312 c 1.5053,0.74942 2.5625,2.284 2.5625,4.0625 0,2.5136 -2.0819,4.5625 -4.625,4.5625 -2.5431,0 -4.5938,-2.0489 -4.5938,-4.5625 0,-1.7785 1.0572,-3.3131 2.5625,-4.0625 l 0.004,-3.531 h -3.25 z"
       id="path2961"
       style="opacity:0.3;fill:url(#linearGradient3077)" />
    <path
       d="M 12,7 C 8.676,7 6,9.676 6,13 v 72 c 0,3.324 2.676,6 6,6 h 72 c 3.324,0 6,-2.676 6,-6 V 13 C 90,9.676 87.324,7 84,7 h -4 v 3.5 c 1.4703,0.7406 2.5,2.2424 2.5,4 0,2.484 -2.016,4.5 -4.5,4.5 -2.484,0 -4.5,-2.016 -4.5,-4.5 0,-1.7576 1.0297,-3.2594 2.5,-4 V 7 h -8 v 3.5 c 1.4703,0.7406 2.5,2.2424 2.5,4 0,2.484 -2.016,4.5 -4.5,4.5 -2.484,0 -4.5,-2.016 -4.5,-4.5 0,-1.7576 1.0297,-3.2594 2.5,-4 V 7 h -8 v 3.5 c 1.4703,0.7406 2.5,2.2424 2.5,4 0,2.484 -2.016,4.5 -4.5,4.5 -2.484,0 -4.5,-2.016 -4.5,-4.5 0,-1.7576 1.0297,-3.2594 2.5,-4 V 7 h -8 v 3.5 c 1.4703,0.7406 2.5,2.2424 2.5,4 0,2.484 -2.016,4.5 -4.5,4.5 -2.484,0 -4.5,-2.016 -4.5,-4.5 0,-1.7576 1.0297,-3.2594 2.5,-4 V 7 h -8 v 3.5 c 1.4703,0.7406 2.5,2.2424 2.5,4 0,2.484 -2.016,4.5 -4.5,4.5 -2.484,0 -4.5,-2.016 -4.5,-4.5 0,-1.7576 1.0297,-3.2594 2.5,-4 V 7 h -8 v 3.5 c 1.4703,0.7406 2.5,2.2424 2.5,4 0,2.484 -2.016,4.5 -4.5,4.5 -2.484,0 -4.5,-2.016 -4.5,-4.5 0,-1.7576 1.0297,-3.2594 2.5,-4 V 7 h -4 z"
       id="path3781"
       style="opacity:0.45;fill:url(#linearGradient3786)" />
    <path
       d="M 12,6.0312 C 7.6092,6.0312 4.0312,9.6092 4.0312,14 v 71 c 0,4.3908 3.5779,7.9688 7.9688,7.9688 h 72 c 4.3908,0 7.9688,-3.5779 7.9688,-7.9688 V 14 c 0,-4.3908 -3.578,-7.9688 -7.969,-7.9688 h -3.25 A 0.95563,0.95563 0 0 0 79.7808,7 v 3.5312 a 0.95563,0.95563 0 0 0 0.531,0.844 c 1.1992,0.59704 2.0312,1.8189 2.0312,3.2188 0,1.9939 -1.5951,3.5938 -3.625,3.5938 -2.0299,0 -3.6562,-1.6078 -3.6562,-3.5938 0,-1.3999 0.83203,-2.6217 2.0312,-3.2188 a 0.95563,0.95563 0 0 0 0.532,-0.844 V 7.0002 A 0.95563,0.95563 0 0 0 76.656,6.0314 h -8.1875 a 0.95563,0.95563 0 0 0 -0.968,0.9688 v 3.5312 a 0.95563,0.95563 0 0 0 0.53125,0.84375 c 1.1992,0.59704 2.0312,1.8189 2.0312,3.2188 0,1.9939 -1.5951,3.5938 -3.625,3.5938 -2.0299,0 -3.6562,-1.6078 -3.6562,-3.5938 0,-1.3999 0.83203,-2.6217 2.0312,-3.2188 A 0.95563,0.95563 0 0 0 65.3442,10.5314 l 0.001,-3.531 a 0.95563,0.95563 0 0 0 -0.969,-0.9688 h -8.1875 a 0.95563,0.95563 0 0 0 -0.969,0.9688 v 3.5312 a 0.95563,0.95563 0 0 0 0.531,0.844 c 1.1992,0.59704 2.0312,1.8189 2.0312,3.2188 0,1.9939 -1.5951,3.5938 -3.625,3.5938 -2.0299,0 -3.6562,-1.6078 -3.6562,-3.5938 0,-1.3999 0.83203,-2.6217 2.0312,-3.2188 a 0.95563,0.95563 0 0 0 0.531,-0.844 v -3.531 a 0.95563,0.95563 0 0 0 -0.968,-0.9688 h -8.1875 a 0.95563,0.95563 0 0 0 -0.968,0.9688 v 3.5312 a 0.95563,0.95563 0 0 0 0.53125,0.84375 c 1.1992,0.59704 2.0312,1.8189 2.0312,3.2188 0,1.986 -1.6263,3.5938 -3.6562,3.5938 -2.0299,0 -3.625,-1.5999 -3.625,-3.5938 0,-1.3999 0.83203,-2.6217 2.0312,-3.2188 A 0.95563,0.95563 0 0 0 40.7831,10.5318 V 7.0008 A 0.95563,0.95563 0 0 0 39.8141,6.032 h -8.1875 a 0.95563,0.95563 0 0 0 -0.968,0.9688 v 3.5312 a 0.95563,0.95563 0 0 0 0.532,0.844 c 1.1992,0.59704 2.0312,1.8189 2.0312,3.2188 0,1.986 -1.6263,3.5938 -3.6562,3.5938 -2.0299,0 -3.625,-1.5999 -3.625,-3.5938 0,-1.3999 0.83203,-2.6217 2.0312,-3.2188 a 0.95563,0.95563 0 0 0 0.531,-0.844 V 7.001 a 0.95563,0.95563 0 0 0 -0.969,-0.9688 h -8.1875 a 0.95563,0.95563 0 0 0 -0.969,0.9688 v 3.5312 a 0.95563,0.95563 0 0 0 0.53125,0.84375 c 1.1992,0.59704 2.0312,1.8189 2.0312,3.2188 0,1.986 -1.6263,3.5938 -3.6562,3.5938 -2.0299,0 -3.625,-1.5999 -3.625,-3.5938 0,-1.3999 0.83203,-2.6217 2.0312,-3.2188 A 0.95563,0.95563 0 0 0 16.221,10.5322 l 0.001,-3.531 A 0.95563,0.95563 0 0 0 15.253,6.0324 h -3.25 z"
       id="path3792"
       style="opacity:0.15;fill:url(#linearGradient3079)" />
    <path
       d="M 12,5 C 6.5171,4.8372 2.2743,10.247 3,15.519 3.0311,38.984 2.9378,62.453 3.0468,85.916 3.437,91.178 8.7605,94.678 13.7718,94 c 23.714,-0.031 47.432,0.062 71.144,-0.047 5.262,-0.39 8.762,-5.714 8.084,-10.725 -0.031,-23.381 0.062,-46.765 -0.047,-70.144 -0.39,-5.2619 -5.714,-8.762 -10.725,-8.084 -1.534,-0.3127 -3.676,0.3364 -3.478,2.2531 0.22412,1.6435 -0.70048,4.0832 1.125,5.0281 5.1786,3.4016 -4.6214,7.7713 -3.6775,1.5959 0.48842,-1.4964 2.8828,-1.914 2.4587,-3.8522 -0.12198,-1.7119 0.64957,-4.4212 -1.625,-4.9937 -3.0908,0.035211 -6.2559,-0.22404 -9.3125,0.125 -2.0708,1.0704 -1.0057,3.8042 -1.2188,5.6562 0.30778,1.8073 3.218,2.0449 2.4811,4.3078 -1.5244,5.2453 -8.3381,-0.99555 -3.3873,-3.0578 1.4663,-1.3422 0.53172,-3.6817 0.75,-5.4375 C 65.6595,4.1795 62.6795,5.2134 60.8305,5 c -1.984,0.2718 -4.323,-0.6158 -6.05,0.5938 -1.116,1.5002 -0.44,3.6014 -0.531,5.3442 0.41451,1.6962 3.1665,1.9768 2.4498,4.1828 -1.525,5.245 -8.338,-0.996 -3.388,-3.059 1.467,-1.342 0.532,-3.6812 0.75,-5.437 -0.684,-2.4455 -3.663,-1.4116 -5.512,-1.625 -1.984,0.2718 -4.323,-0.6158 -6.05,0.5938 -1.1159,1.5002 -0.44067,3.6014 -0.53125,5.3438 0.4123,1.6952 3.1652,1.9739 2.4484,4.1768 -1.561,5.254 -8.327,-0.98 -3.386,-3.052 1.467,-1.342 0.532,-3.6812 0.75,-5.437 -0.684,-2.4455 -3.663,-1.4116 -5.513,-1.625 -1.983,0.2718 -4.322,-0.6158 -6.049,0.5938 -1.116,1.5002 -0.441,3.6014 -0.531,5.3442 0.4123,1.6952 3.1652,1.9739 2.4484,4.1768 -1.561,5.253 -8.328,-0.981 -3.386,-3.053 1.466,-1.342 0.532,-3.6812 0.75,-5.437 -0.684,-2.4455 -3.663,-1.4116 -5.513,-1.625 -1.983,0.2718 -4.322,-0.6158 -6.049,0.5938 -1.1159,1.5002 -0.44067,3.6014 -0.53125,5.3438 0.4123,1.6952 3.1652,1.9739 2.4484,4.1768 -1.561,5.254 -8.328,-0.98 -3.386,-3.052 C 17.935,10.7204 17,8.3812 17.219,6.6254 16.617,4.2133 13.76,5.21 12,5.0004 z"
       id="path3800"
       style="opacity:0.1;fill:url(#linearGradient3779)" />
  </g>
  <g
     transform="matrix(2.791535,0,0,2.791535,-5.6358758,-9.1460004)"
     id="layer1">
    <path
       d="M 12,6 C 8.676,6 6,8.676 6,12 v 72 c 0,3.324 2.676,6 6,6 h 72 c 3.324,0 6,-2.676 6,-6 V 12 C 90,8.676 87.324,6 84,6 h -4 v 3.5 c 1.4703,0.7406 2.5,2.2424 2.5,4 0,2.484 -2.016,4.5 -4.5,4.5 -2.484,0 -4.5,-2.016 -4.5,-4.5 0,-1.7576 1.0297,-3.2594 2.5,-4 V 6 h -8 v 3.5 c 1.4703,0.7406 2.5,2.2424 2.5,4 0,2.484 -2.016,4.5 -4.5,4.5 -2.484,0 -4.5,-2.016 -4.5,-4.5 0,-1.7576 1.0297,-3.2594 2.5,-4 V 6 h -8 v 3.5 c 1.4703,0.7406 2.5,2.2424 2.5,4 0,2.484 -2.016,4.5 -4.5,4.5 -2.484,0 -4.5,-2.016 -4.5,-4.5 0,-1.7576 1.0297,-3.2594 2.5,-4 V 6 h -8 v 3.5 c 1.4703,0.7406 2.5,2.2424 2.5,4 0,2.484 -2.016,4.5 -4.5,4.5 -2.484,0 -4.5,-2.016 -4.5,-4.5 0,-1.7576 1.0297,-3.2594 2.5,-4 V 6 h -8 v 3.5 c 1.4703,0.7406 2.5,2.2424 2.5,4 0,2.484 -2.016,4.5 -4.5,4.5 -2.484,0 -4.5,-2.016 -4.5,-4.5 0,-1.7576 1.0297,-3.2594 2.5,-4 V 6 h -8 v 3.5 c 1.4703,0.7406 2.5,2.2424 2.5,4 0,2.484 -2.016,4.5 -4.5,4.5 -2.484,0 -4.5,-2.016 -4.5,-4.5 0,-1.7576 1.0297,-3.2594 2.5,-4 V 6 h -4 z"
       id="rect2419"
       style="fill:url(#linearGradient3646)" />
    <path
       d="M 12,6 C 8.676,6 6,8.676 6,12 v 2 68 2 c 0,0.33472 0.04135,0.6507 0.09375,0.96875 0.0487,0.2956 0.09704,0.59692 0.1875,0.875 0.00988,0.03038 0.020892,0.0636 0.03125,0.09375 0.098865,0.28777 0.23488,0.54745 0.375,0.8125 0.14459,0.27351 0.31562,0.53562 0.5,0.78125 0.18438,0.24564 0.37378,0.47347 0.59375,0.6875 0.43995,0.42806 0.94291,0.81453 1.5,1.0938 0.27854,0.13961 0.57347,0.24695 0.875,0.34375 -0.2562,-0.10022 -0.48671,-0.23627 -0.71875,-0.375 -0.00741,-0.0044 -0.023866,0.0045 -0.03125,0 C 9.374317,89.262 9.343957,89.23879 9.3125,89.2188 9.1921,89.1421 9.08148,89.05529 8.96875,88.9688 8.86258,88.888 8.75547,88.80769 8.65625,88.7188 c -0.1778,-0.162 -0.3473,-0.346 -0.4999,-0.531 -0.1075,-0.131 -0.2183,-0.266 -0.3124,-0.407 -0.0251,-0.038 -0.0385,-0.086 -0.0626,-0.125 -0.0647,-0.103 -0.1302,-0.204 -0.1874,-0.312 -0.1011,-0.195 -0.2057,-0.416 -0.2813,-0.625 -0.008,-0.022 -0.0236,-0.041 -0.0313,-0.063 -0.0318,-0.092 -0.0358,-0.187 -0.0624,-0.281 -0.0304,-0.107 -0.0704,-0.203 -0.0938,-0.313 -0.0729,-0.341 -0.125,-0.698 -0.125,-1.062 v -2 -68 -2 c 0,-2.782 2.2182,-5 5,-5 h 2 2 v -2 h -4 z m 8,0 v 2 h 8 V 6 h -8 z m 12,0 v 2 h 8 V 6 h -8 z m 12,0 v 2 h 8 V 6 h -8 z m 12,0 v 2 h 8 V 6 h -8 z m 12,0 v 2 h 8 V 6 h -8 z m 12,0 v 2 h 2 2 c 2.7818,0 5,2.2182 5,5 v 2 68 2 c 0,0.3643 -0.05212,0.72099 -0.125,1.0625 -0.04415,0.20689 -0.08838,0.39766 -0.15625,0.59375 -0.0077,0.02195 -0.0233,0.04069 -0.03125,0.0625 -0.06274,0.17374 -0.13838,0.36745 -0.21875,0.53125 -0.04158,0.0828 -0.07904,0.16995 -0.125,0.25 -0.0546,0.09721 -0.12677,0.18835 -0.1875,0.28125 -0.09411,0.14096 -0.20492,0.276 -0.3125,0.40625 -0.14317,0.17445 -0.30314,0.347 -0.46875,0.5 -0.01117,0.0102 -0.01998,0.02115 -0.03125,0.03125 -0.13839,0.12556 -0.28509,0.23444 -0.4375,0.34375 -0.10257,0.07315 -0.20432,0.15336 -0.3125,0.21875 -0.0074,0.0045 -0.02384,-0.0044 -0.03125,0 -0.23204,0.13873 -0.46255,0.27478 -0.71875,0.375 0.30153,-0.0968 0.59646,-0.20414 0.875,-0.34375 0.55709,-0.27922 1.0601,-0.66569 1.5,-1.0938 0.21997,-0.21403 0.40937,-0.44186 0.59375,-0.6875 0.18438,-0.24564 0.35541,-0.50774 0.5,-0.78125 0.14012,-0.26505 0.27614,-0.52473 0.375,-0.8125 0.01041,-0.03078 0.02133,-0.06274 0.03125,-0.09375 0.09046,-0.27808 0.1388,-0.5794 0.1875,-0.875 0.053,-0.318 0.094,-0.634 0.094,-0.969 v -2 -68 -2 c 0,-3.324 -2.676,-6 -6,-6 h -4 z"
       id="rect3728"
       style="opacity:0.5;fill:url(#linearGradient3188)" />
    <path
       d="M 12,90 C 8.676,90 6,87.324 6,84 V 82 14 12 c 0,-0.33472 0.04135,-0.6507 0.09375,-0.96875 0.0487,-0.2956 0.09704,-0.59692 0.1875,-0.875 0.0099,-0.03 0.0209,-0.063 0.0313,-0.094 0.0989,-0.2873 0.2349,-0.547 0.375,-0.812 0.1446,-0.2735 0.3156,-0.5356 0.5,-0.7812 0.1844,-0.2457 0.3738,-0.4735 0.5937,-0.6876 0.44,-0.428 0.943,-0.8145 1.5,-1.0937 0.2786,-0.1396 0.5735,-0.2469 0.8748,-0.3437 -0.256,0.1002 -0.4865,0.2362 -0.7185,0.375 -0.00741,0.0044 -0.023866,-0.0045 -0.03125,0 -0.031933,0.0193 -0.062293,0.04251 -0.09375,0.0625 -0.1204,0.0767 -0.23102,0.16351 -0.34375,0.25 -0.10617,0.0808 -0.21328,0.16111 -0.3125,0.25 -0.1779,0.1614 -0.3474,0.3453 -0.5,0.5312 -0.1075,0.1303 -0.2183,0.2653 -0.3124,0.4063 -0.0251,0.0383 -0.0385,0.0858 -0.0626,0.125 -0.0647,0.103 -0.1302,0.2045 -0.1874,0.3124 -0.1011,0.1948 -0.2057,0.4158 -0.2813,0.625 -0.008,0.0219 -0.0236,0.0406 -0.0313,0.0626 -0.0318,0.0919 -0.0358,0.1868 -0.0624,0.2812 -0.0304,0.1066 -0.0704,0.203 -0.0938,0.3125 -0.0729,0.3415 -0.125,0.6985 -0.125,1.0625 v 2 68 2 c 0,2.7818 2.2182,5 5,5 h 2 68 2 c 2.7818,0 5,-2.2182 5,-5 v -2 -68 -2 c 0,-0.364 -0.052,-0.721 -0.125,-1.0625 -0.044,-0.2069 -0.088,-0.3977 -0.156,-0.5937 -0.008,-0.022 -0.024,-0.0407 -0.031,-0.0626 -0.063,-0.1737 -0.139,-0.3674 -0.219,-0.5312 -0.042,-0.0828 -0.079,-0.17 -0.125,-0.25 -0.055,-0.0972 -0.127,-0.1884 -0.188,-0.2812 -0.094,-0.141 -0.205,-0.276 -0.312,-0.4063 -0.143,-0.1745 -0.303,-0.347 -0.469,-0.5 -0.011,-0.0102 -0.02,-0.0211 -0.031,-0.0313 -0.139,-0.1255 -0.285,-0.2344 -0.438,-0.3437 -0.102,-0.0731 -0.204,-0.1534 -0.312,-0.2187 -0.0074,-0.0045 -0.02384,0.0044 -0.03125,0 -0.23204,-0.13873 -0.46255,-0.27478 -0.71875,-0.375 0.30153,0.0968 0.59646,0.20414 0.875,0.34375 0.55709,0.27922 1.0601,0.66569 1.5,1.0938 0.21997,0.21403 0.40937,0.44186 0.59375,0.6875 0.18438,0.24564 0.35541,0.50774 0.5,0.78125 0.14012,0.26505 0.27614,0.52473 0.375,0.8125 0.01041,0.03078 0.02133,0.06274 0.03125,0.09375 0.09046,0.27808 0.1388,0.5794 0.1875,0.875 0.053,0.318 0.094,0.634 0.094,0.969 v 2 68 2 c 0,3.324 -2.676,6 -6,6 h -72 z"
       id="path3615"
       style="opacity:0.6;fill:url(#radialGradient2855)" />
  </g>
  <path
     d="M 74.325254,193.89953 86.112781,52.691488 110.22064,54.198219 92.139668,195.07705 74.325254,193.89749"
     id="path7941"
     style="fill:none;stroke:#000000;stroke-width:3.19627047px" />
  <path
     d="m 74.382789,193.41689 c 4.267022,56.60276 16.441615,3.7077 17.579485,1.86345"
     id="path3140"
     style="fill:none;stroke:#000000;stroke-width:3.19627047px" />
  <path
     d="m 83.114998,192.97903 c -3.870039,-0.27415 -7.062157,-0.52861 -7.093803,-0.56524 -0.03163,-0.0366 2.538992,-31.11027 5.712697,-69.05226 l 5.770547,-68.985091 1.456639,0.0656 c 4.279804,0.192615 19.311862,1.186776 19.408712,1.283497 0.11236,0.112271 -8.06835,64.491154 -9.034578,71.101074 -0.278485,1.90441 -2.256314,17.30651 -4.395194,34.22564 -2.138848,16.92044 -3.954745,31.15375 -4.035291,31.62969 -0.08056,0.4761 -0.283014,0.85032 -0.449811,0.83157 -0.166822,-0.0197 -3.469551,-0.25849 -7.339599,-0.53272 z"
     id="path3111"
     style="fill:#d71414;fill-opacity:1;stroke:#1a1a1a;stroke-width:0.26635483" />
  <path
     d="m 76.642568,210.57441 10.521941,0.85891"
     id="path4195"
     style="fill:none;stroke:#000000;stroke-width:2.79153514px;stroke-linecap:butt;stroke-linejoin:miter;stroke-opacity:1" />
  <path
     d="m 80.522308,209.58662 -2.669629,-0.23616 -0.163084,-0.61318 c -0.405582,-1.52501 -1.66988,-12.91176 -1.455358,-13.10753 0.200013,-0.18258 13.612624,0.85986 13.587369,1.05595 -0.07219,0.56058 -2.395556,8.04794 -3.246957,10.46376 l -0.964897,2.73786 -1.208906,-0.0321 c -0.664896,-0.0172 -2.410239,-0.13844 -3.878536,-0.26827 z"
     id="path4203"
     style="fill:#666666" />
  <path
     d="m 79.908694,216.59616 c -0.589121,-1.10531 -1.645633,-4.32106 -1.475536,-4.49115 0.187758,-0.18786 5.939477,0.45295 5.936795,0.6613 -0.0048,0.37289 -1.68353,3.35421 -2.393309,4.25042 -0.897927,1.13371 -1.281048,1.05579 -2.06795,-0.42057 z"
     id="path4207"
     style="fill:#000000;stroke:#000000;stroke-width:2.79153514;stroke-opacity:1" />
  <path
     d="m 110,58 c 105.12849,0.781394 83.34248,85.66781 -10,74 50.45248,14.12885 37.67354,61.18926 80.66667,86.66667"
     id="path3797"
     style="fill:none;stroke:#000000;stroke-width:10;stroke-linecap:butt;stroke-linejoin:miter;stroke-miterlimit:4;stroke-opacity:1;stroke-dasharray:none" />
</svg>
